<svg t="1713140899252" class="icon" viewBox="0 0 1024 1024" version="1.1" xmlns="http://www.w3.org/2000/svg" p-id="4256" width="200" height="200"><path d="M548.571429 768v73.142857a36.571429 36.571429 0 1 1-73.142858 0v-73.142857h-146.285714v73.142857a36.571429 36.571429 0 1 1-73.142857 0v-73.142857h-73.142857A109.714286 109.714286 0 0 1 73.142857 658.285714V292.571429a109.714286 109.714286 0 0 1 109.714286-109.714286h73.142857v-73.142857a36.571429 36.571429 0 0 1 73.142857 0v73.142857h146.285714v-73.142857a36.571429 36.571429 0 0 1 73.142858 0v73.142857h146.285714v-73.142857a36.571429 36.571429 0 0 1 73.142857 0v73.142857h73.142857A109.714286 109.714286 0 0 1 950.857143 292.571429v365.714285a109.714286 109.714286 0 0 1-109.714286 109.714286h-73.142857v73.142857a36.571429 36.571429 0 1 1-73.142857 0v-73.142857h-146.285714z m292.571428-512h-658.285714A36.571429 36.571429 0 0 0 146.285714 292.571429v365.714285a36.571429 36.571429 0 0 0 36.571429 36.571429h658.285714A36.571429 36.571429 0 0 0 877.714286 658.285714V292.571429a36.571429 36.571429 0 0 0-36.571429-36.571429zM292.571429 365.714286a36.571429 36.571429 0 0 1 36.571428 36.571428v146.285715a36.571429 36.571429 0 0 1-73.142857 0v-146.285715A36.571429 36.571429 0 0 1 292.571429 365.714286z m219.428571 0a36.571429 36.571429 0 0 1 36.571429 36.571428v146.285715a36.571429 36.571429 0 0 1-73.142858 0v-146.285715A36.571429 36.571429 0 0 1 512 365.714286z m219.428571 0a36.571429 36.571429 0 0 1 36.571429 36.571428v146.285715a36.571429 36.571429 0 1 1-73.142857 0v-146.285715A36.571429 36.571429 0 0 1 731.428571 365.714286z" fill="" p-id="4257"></path></svg>