<svg t="1715140012946" class="icon" viewBox="0 0 1024 1024" version="1.1" xmlns="http://www.w3.org/2000/svg" p-id="5380" width="200" height="200"><path d="M804.5 871.5H219.4c-64.7 0-117.4-52.7-117.4-117.4V269.9c0-64.7 52.7-117.4 117.4-117.4h585.3c64.7 0 117.4 52.7 117.4 117.4v484.3c-0.2 64.7-52.9 117.3-117.6 117.3z m-585.1-649c-26.1 0-47.4 21.3-47.4 47.4v484.2c0 26.1 21.3 47.4 47.4 47.4h585.2c26.1 0 47.4-21.3 47.5-47.4V269.9c0-26.1-21.3-47.4-47.4-47.4H219.4z" p-id="5381"></path><path d="M812 547H212c-19.3 0-35-15.7-35-35s15.7-35 35-35h600c19.3 0 35 15.7 35 35s-15.7 35-35 35z" p-id="5382"></path><path d="M387.6 776c-19.3 0-35-15.7-35-35V283c0-19.3 15.7-35 35-35s35 15.7 35 35v458c0 19.4-15.7 35-35 35zM636.4 776c-19.3 0-35-15.7-35-35V283c0-19.3 15.7-35 35-35s35 15.7 35 35v458c0 19.4-15.7 35-35 35z" p-id="5383"></path></svg>