<svg t="1713143828463" class="icon" viewBox="0 0 1024 1024" version="1.1" xmlns="http://www.w3.org/2000/svg" p-id="16119" width="200" height="200"><path d="M584.704 808.96c17.5104 15.9232 26.3168 37.2736 26.3168 63.8976a88.9344 88.9344 0 0 1-27.3408 65.4336 94.0032 94.0032 0 0 1-65.2288 25.0368A88.7808 88.7808 0 0 1 453.0176 936.96a87.04 87.04 0 0 1-26.3168-63.8976c0-26.7776 8.8064-47.9744 26.3168-63.8976 16.6912-16.6912 38.5536-25.0368 65.1776-25.0368q41.472 0 66.56 25.0368z m151.7056-692.1216q75.1616 65.28 75.3152 179.2 0 91.4944-47.6672 152.9856c-10.9568 13.3632-46.08 46.08-105.3696 97.792a193.8432 193.8432 0 0 0-52.6336 65.1776 169.472 169.472 0 0 0-20.0704 82.8928 21.3504 21.3504 0 0 1-21.3504 21.3504H473.088a21.3504 21.3504 0 0 1-21.3504-21.3504c0-48.5376 8.3456-88.1664 25.0368-119.1424q23.8592-50.176 141.7728-155.5968l21.4528-23.6032c23.3984-30.0544 35.1232-60.7232 35.1232-91.5456 0-42.7008-12.1856-76.8-36.4544-102.912-25.0368-25.0368-60.672-37.5808-106.5984-37.5808q-85.248 0-122.88 53.9648a168.0896 168.0896 0 0 0-29.696 73.8816A65.3824 65.3824 0 1 1 250.88 267.776q16.896-82.3808 71.68-136.96Q401.4592 50.5856 540.7232 50.5344q121.8048 0 195.6864 66.56z" fill="" p-id="16120"></path></svg>