<svg t="1712998730110" class="icon" viewBox="0 0 1024 1024" version="1.1" xmlns="http://www.w3.org/2000/svg" p-id="7871" width="200" height="200"><path d="M835.087 170.965c-39.489 0-71.797-32.309-71.797-71.797V63.269H224.812c-39.488 0-71.796 32.308-71.796 71.796v753.867c0 39.489 32.309 71.797 71.796 71.797h574.376c39.489 0 71.796-32.309 71.796-71.797V170.965h-35.897zM701.511 770.883H312.134c-11.623 0-21.047-15.455-21.047-34.518 0-19.062 9.424-34.518 21.047-34.518h389.378c11.623 0 21.047 15.455 21.047 34.518-0.001 19.063-9.424 34.518-21.048 34.518z m0-116.497H312.134c-11.623 0-21.047-15.455-21.047-34.518 0-19.062 9.424-34.518 21.047-34.518h389.378c11.623 0 21.047 15.455 21.047 34.518-0.001 19.062-9.424 34.518-21.048 34.518z m0-125.127H312.134c-11.623 0-21.047-15.455-21.047-34.518 0-19.062 9.424-34.518 21.047-34.518h389.378c11.623 0 21.047 15.455 21.047 34.518-0.001 19.062-9.424 34.518-21.048 34.518z" p-id="7872"></path></svg>