<svg t="1713142504423" class="icon" viewBox="0 0 1024 1024" version="1.1" xmlns="http://www.w3.org/2000/svg" p-id="10672" width="200" height="200"><path d="M666.410667 90.922667H357.546667c-147.2 0-266.666667 119.466667-266.666667 266.666666v308.522667c0 147.2 119.466667 266.666667 266.666667 266.666667h308.565333c147.2 0 266.666667-119.466667 266.666667-266.666667v-308.48a266.368 266.368 0 0 0-266.410667-266.666667zM285.610667 285.610667a80 80 0 0 1 113.066666 113.066666 80 80 0 0 1-113.066666-113.066666z m118.656 452.778666a80 80 0 1 1-113.066667-113.152 80 80 0 0 1 113.066667 113.152z m169.6-169.856a80 80 0 0 1-113.066667-113.066666 80 80 0 0 1 113.066667 113.066666z m164.522666 169.856a80 80 0 1 1-113.066666-113.152 80 80 0 0 1 113.066666 113.152z m5.333334-339.456a80 80 0 0 1-113.066667-113.066666 80 80 0 0 1 113.066667 113.066666z" p-id="10673"></path></svg>