<svg t="1713141079347" class="icon" viewBox="0 0 1024 1024" version="1.1" xmlns="http://www.w3.org/2000/svg" p-id="6272" width="200" height="200"><path d="M512 8A500.864 500.864 0 0 0 8 512c0 64.768 14.4 122.432 28.8 172.8l7.168 14.4c79.168 187.264 259.2 316.8 468.032 316.8 280.832 0 504-223.168 504-504S792.832 8 512 8z m-21.568 864c-7.232 0-7.232 0-14.4-7.168l-50.432-50.432v43.2c0 7.232-7.232 14.464-14.4 14.464-7.232 0-14.4-7.296-14.4-14.464v-122.432c0-7.168 7.168-14.4 14.4-14.4 7.168 0 14.4 7.168 14.4 14.4v36.032l50.432-43.136c7.168-7.232 7.168-7.232 14.4-7.232s14.4 7.232 14.4 14.4 0 7.168-7.168 14.4l-50.432 43.264 57.6 57.536C512 857.6 512 857.6 512 864.768c-7.232 0-7.232 7.232-21.568 7.232z m143.936-14.4c0 36.032-21.632 50.432-50.368 57.6-28.8 0-43.2-7.168-43.2-21.632 0-7.168 7.232-14.4 14.4-14.4 7.232 0 7.232 0 14.464 7.168 7.168 7.168 14.4 7.168 21.632 7.168 7.104 0 14.4 0 21.504-14.4-14.4-7.168-21.504-7.168-28.736-7.168-21.568 0-50.432-14.464-50.432-57.6s28.8-57.6 50.432-57.6c7.232 0 14.4 0 21.632 7.232 0-7.232 7.104-7.232 14.4-7.232 7.168 0 14.4 7.232 14.4 14.464v86.4z m-86.336-216.064l86.4-345.6c7.168-14.4-7.232-35.968-21.696-35.968-14.336-7.232-28.736 7.232-35.968 21.568l-86.336 360H94.4A407.04 407.04 0 0 1 72.768 512c0-244.8 194.432-439.168 439.232-439.168S951.168 267.2 951.168 512c0 43.2-7.168 86.4-21.568 129.536H548.032z m35.968 144.064c-7.232 0-21.632 7.168-21.632 28.736 0 28.8 14.4 28.8 21.632 28.8s21.632-7.168 21.632-28.8c0-28.736-14.464-28.736-21.632-28.736z" fill="" p-id="6273"></path></svg>